<svg width="313" height="333" viewBox="0 0 313 333" fill="none" xmlns="http://www.w3.org/2000/svg">
<circle cx="151.5" cy="94.5" r="89.5" stroke="black" stroke-width="10"/>
<path d="M208 155C208 161.736 203 168.899 192.568 174.666C182.311 180.337 167.8 184 151.5 184C135.2 184 120.689 180.337 110.432 174.666C100 168.899 95 161.736 95 155C95 148.264 100 141.101 110.432 135.334C120.689 129.663 135.2 126 151.5 126C167.8 126 182.311 129.663 192.568 135.334C203 141.101 208 148.264 208 155Z" stroke="black" stroke-width="10"/>
<rect x="57" y="90" width="189" height="9" fill="black"/>
<rect x="147" y="189" width="189" height="9" transform="rotate(-90 147 189)" fill="black"/>
<path d="M196 94.5C196 119.947 190.532 142.737 181.936 158.983C173.221 175.454 162.041 184 151 184C139.959 184 128.779 175.454 120.064 158.983C111.468 142.737 106 119.947 106 94.5C106 69.0531 111.468 46.2634 120.064 30.0168C128.779 13.5458 139.959 5 151 5C162.041 5 173.221 13.5458 181.936 30.0168C190.532 46.2634 196 69.0531 196 94.5Z" stroke="black" stroke-width="10"/>
<path d="M208 34C208 40.736 203 47.8986 192.568 53.6658C182.311 59.3366 167.8 63 151.5 63C135.2 63 120.689 59.3366 110.432 53.6658C100 47.8986 95 40.736 95 34C95 27.264 100 20.1014 110.432 14.3342C120.689 8.66342 135.2 5 151.5 5C167.8 5 182.311 8.66342 192.568 14.3342C203 20.1014 208 27.264 208 34Z" stroke="black" stroke-width="10"/>
<circle cx="190.5" cy="53.5" r="14.5" fill="#00A96D" stroke="black" stroke-width="10"/>
<circle cx="106.5" cy="94.5" r="14.5" fill="white" stroke="black" stroke-width="10"/>
<circle cx="151.5" cy="126.5" r="14.5" fill="#EB0931" stroke="black" stroke-width="10"/>
<path d="M169.565 259.464C107.613 262.968 65 247.5 70.5 225M70.5 225C63 225.5 43.0644 198.964 34.565 190.964M70.5 225C70.5 225 73.5 212 98 220M34.565 190.964C26.0655 182.964 17.0664 179.51 10.0647 183.964C3.0631 188.419 3.56499 199.964 10.065 209.464C16.565 218.964 86.0644 308.464 136.065 303.464C186.066 298.464 207.566 291.464 223.066 292.964C238.567 294.464 277.065 327.964 277.065 327.964L307.565 272.964L252.565 239.964C228.065 217.964 214.594 209.135 194.066 209.464C173.539 209.794 157.133 217.552 140.066 222.258C123 226.964 110.917 225 98 220M34.565 190.964C39.0655 186.464 51.567 187.464 60.5664 190.964C69.5659 194.464 87 215.742 98 220" stroke="black" stroke-width="10" stroke-linejoin="round"/>
</svg>
