<svg width="40" height="40" viewBox="0 0 50 50" fill="none" xmlns="http://www.w3.org/2000/svg">
<path d="M25 48.6773C38.0766 48.6773 48.6773 38.0766 48.6773 25C48.6773 11.9234 38.0766 1.32275 25 1.32275C11.9234 1.32275 1.32275 11.9234 1.32275 25C1.32275 38.0766 11.9234 48.6773 25 48.6773Z" stroke="black" stroke-width="2"/>
<path d="M39.9471 41.0053C39.9471 42.7873 38.6243 44.6823 35.8646 46.2079C33.1511 47.7082 29.3122 48.6773 25 48.6773C20.6877 48.6773 16.8491 47.7082 14.1355 46.2079C11.3757 44.6823 10.0529 42.7873 10.0529 41.0053C10.0529 39.2233 11.3757 37.3283 14.1355 35.8027C16.8491 34.3024 20.6877 33.3333 25 33.3333C29.3122 33.3333 33.1511 34.3024 35.8646 35.8027C38.6243 37.3283 39.9471 39.2233 39.9471 41.0053Z" stroke="black" stroke-width="2"/>
<path d="M48.3545 24H1V26H48.3545V24Z" fill="black"/>
<path d="M24 0.999989L24 48.3545H26L26 0.999989H24Z" fill="black"/>
<path d="M36.7725 25C36.7725 31.732 35.3259 37.7611 33.0519 42.059C30.7463 46.4164 27.7886 48.6773 24.8677 48.6773C21.9469 48.6773 18.9892 46.4164 16.6837 42.059C14.4096 37.7611 12.963 31.732 12.963 25C12.963 18.268 14.4096 12.239 16.6837 7.94096C18.9892 3.58355 21.9469 1.32275 24.8677 1.32275C27.7886 1.32275 30.7463 3.58355 33.0519 7.94096C35.3259 12.239 36.7725 18.268 36.7725 25Z" stroke="black" stroke-width="2"/>
<path d="M39.9471 8.99471C39.9471 10.7767 38.6243 12.6716 35.8646 14.1973C33.1511 15.6975 29.3122 16.6667 25 16.6667C20.6877 16.6667 16.8491 15.6975 14.1355 14.1973C11.3757 12.6716 10.0529 10.7767 10.0529 8.99471C10.0529 7.2127 11.3757 5.31783 14.1355 3.79212C16.8491 2.29191 20.6877 1.32275 25 1.32275C29.3122 1.32275 33.1511 2.29191 35.8646 3.79212C38.6243 5.31783 39.9471 7.2127 39.9471 8.99471Z" stroke="black" stroke-width="2"/>
<path d="M35.3175 17.9894C37.436 17.9894 39.1534 16.272 39.1534 14.1535C39.1534 12.0349 37.436 10.3175 35.3175 10.3175C33.1989 10.3175 31.4815 12.0349 31.4815 14.1535C31.4815 16.272 33.1989 17.9894 35.3175 17.9894Z" fill="#00A96D" stroke="black" stroke-width="2"/>
<path d="M13.0952 28.836C15.2138 28.836 16.9312 27.1186 16.9312 25C16.9312 22.8815 15.2138 21.164 13.0952 21.164C10.9767 21.164 9.25926 22.8815 9.25926 25C9.25926 27.1186 10.9767 28.836 13.0952 28.836Z" fill="white" stroke="black" stroke-width="2"/>
<path d="M24.836 37.672C26.9545 37.672 28.6719 35.9545 28.6719 33.836C28.6719 31.7174 26.9545 30 24.836 30C22.7174 30 21 31.7174 21 33.836C21 35.9545 22.7174 37.672 24.836 37.672Z" fill="#EB0931" stroke="black" stroke-width="2"/>
</svg>
